<mxfile host="Electron" modified="2024-01-28T10:59:59.497Z" agent="Mozilla/5.0 (Macintosh; Intel Mac OS X 10_15_7) AppleWebKit/537.36 (KHTML, like Gecko) draw.io/22.1.2 Chrome/114.0.5735.289 Electron/25.9.4 Safari/537.36" etag="_30HwoR_obdDEK0MlJxk" version="22.1.2" type="device">
  <diagram name="Seite-1" id="hBREeetBM2c96PoSBPTZ">
    <mxGraphModel dx="1659" dy="971" grid="1" gridSize="10" guides="1" tooltips="1" connect="1" arrows="1" fold="1" page="1" pageScale="1" pageWidth="827" pageHeight="1169" math="0" shadow="0">
      <root>
        <mxCell id="0" />
        <mxCell id="1" parent="0" />
        <mxCell id="7tsFfhqOV2eTebvIQZ4a-1" value="MedicalRecord&lt;br&gt;" style="swimlane;fontStyle=1;align=center;verticalAlign=top;childLayout=stackLayout;horizontal=1;startSize=26;horizontalStack=0;resizeParent=1;resizeParentMax=0;resizeLast=0;collapsible=1;marginBottom=0;whiteSpace=wrap;html=1;" parent="1" vertex="1">
          <mxGeometry x="381" y="80" width="210" height="138" as="geometry" />
        </mxCell>
        <mxCell id="7tsFfhqOV2eTebvIQZ4a-2" value="&lt;font style=&quot;font-size: 14px;&quot;&gt;+ id: String&lt;br&gt;+ display: String&lt;br&gt;+ code: String&lt;br&gt;+ type: MedicalRecordType&lt;br&gt;+ relation: String&lt;br&gt;&lt;/font&gt;" style="text;strokeColor=none;fillColor=none;align=left;verticalAlign=top;spacingLeft=4;spacingRight=4;overflow=hidden;rotatable=0;points=[[0,0.5],[1,0.5]];portConstraint=eastwest;whiteSpace=wrap;html=1;" parent="7tsFfhqOV2eTebvIQZ4a-1" vertex="1">
          <mxGeometry y="26" width="210" height="104" as="geometry" />
        </mxCell>
        <mxCell id="7tsFfhqOV2eTebvIQZ4a-3" value="" style="line;strokeWidth=1;fillColor=none;align=left;verticalAlign=middle;spacingTop=-1;spacingLeft=3;spacingRight=3;rotatable=0;labelPosition=right;points=[];portConstraint=eastwest;strokeColor=inherit;" parent="7tsFfhqOV2eTebvIQZ4a-1" vertex="1">
          <mxGeometry y="130" width="210" height="8" as="geometry" />
        </mxCell>
        <mxCell id="7tsFfhqOV2eTebvIQZ4a-5" value="Encounter" style="swimlane;fontStyle=1;align=center;verticalAlign=top;childLayout=stackLayout;horizontal=1;startSize=26;horizontalStack=0;resizeParent=1;resizeParentMax=0;resizeLast=0;collapsible=1;marginBottom=0;whiteSpace=wrap;html=1;" parent="1" vertex="1">
          <mxGeometry x="40" y="80" width="230" height="138" as="geometry" />
        </mxCell>
        <mxCell id="7tsFfhqOV2eTebvIQZ4a-6" value="&lt;font style=&quot;font-size: 14px;&quot;&gt;+ id: String&lt;br&gt;+ patiendId: String&lt;br&gt;+ date:Date&lt;br&gt;+ name: String&lt;br&gt;+ records: List&amp;lt;MedicalRecords&amp;gt;&lt;br&gt;&lt;br&gt;&lt;/font&gt;" style="text;strokeColor=none;fillColor=none;align=left;verticalAlign=top;spacingLeft=4;spacingRight=4;overflow=hidden;rotatable=0;points=[[0,0.5],[1,0.5]];portConstraint=eastwest;whiteSpace=wrap;html=1;" parent="7tsFfhqOV2eTebvIQZ4a-5" vertex="1">
          <mxGeometry y="26" width="230" height="104" as="geometry" />
        </mxCell>
        <mxCell id="7tsFfhqOV2eTebvIQZ4a-7" value="" style="line;strokeWidth=1;fillColor=none;align=left;verticalAlign=middle;spacingTop=-1;spacingLeft=3;spacingRight=3;rotatable=0;labelPosition=right;points=[];portConstraint=eastwest;strokeColor=inherit;" parent="7tsFfhqOV2eTebvIQZ4a-5" vertex="1">
          <mxGeometry y="130" width="230" height="8" as="geometry" />
        </mxCell>
        <mxCell id="7tsFfhqOV2eTebvIQZ4a-8" value="" style="endArrow=block;endFill=1;html=1;edgeStyle=orthogonalEdgeStyle;align=left;verticalAlign=top;rounded=0;" parent="1" edge="1">
          <mxGeometry x="-1" relative="1" as="geometry">
            <mxPoint x="270" y="160" as="sourcePoint" />
            <mxPoint x="370" y="160" as="targetPoint" />
          </mxGeometry>
        </mxCell>
        <mxCell id="7tsFfhqOV2eTebvIQZ4a-9" value="1" style="edgeLabel;resizable=0;html=1;align=left;verticalAlign=bottom;" parent="7tsFfhqOV2eTebvIQZ4a-8" connectable="0" vertex="1">
          <mxGeometry x="-1" relative="1" as="geometry" />
        </mxCell>
        <mxCell id="7tsFfhqOV2eTebvIQZ4a-13" value="*" style="edgeLabel;resizable=0;html=1;align=left;verticalAlign=bottom;" parent="1" connectable="0" vertex="1">
          <mxGeometry x="280" y="180" as="geometry">
            <mxPoint x="75" y="-17" as="offset" />
          </mxGeometry>
        </mxCell>
        <mxCell id="7tsFfhqOV2eTebvIQZ4a-14" value="BodyMetrics" style="swimlane;fontStyle=1;align=center;verticalAlign=top;childLayout=stackLayout;horizontal=1;startSize=26;horizontalStack=0;resizeParent=1;resizeParentMax=0;resizeLast=0;collapsible=1;marginBottom=0;whiteSpace=wrap;html=1;" parent="1" vertex="1">
          <mxGeometry x="381" y="320" width="210" height="150" as="geometry" />
        </mxCell>
        <mxCell id="7tsFfhqOV2eTebvIQZ4a-15" value="&lt;font style=&quot;font-size: 14px;&quot;&gt;+ id: String&lt;br&gt;+ bodyHeight: String&lt;br&gt;+ bodyFat: String&lt;br&gt;+ bellyCircumference&lt;span style=&quot;background-color: initial;&quot;&gt;: String&lt;/span&gt;&lt;br&gt;+ headCircumference&lt;span style=&quot;background-color: initial;&quot;&gt;: String&lt;br&gt;&lt;/span&gt;+ toDisplay(): String&lt;br&gt;&lt;/font&gt;" style="text;strokeColor=none;fillColor=none;align=left;verticalAlign=top;spacingLeft=4;spacingRight=4;overflow=hidden;rotatable=0;points=[[0,0.5],[1,0.5]];portConstraint=eastwest;whiteSpace=wrap;html=1;" parent="7tsFfhqOV2eTebvIQZ4a-14" vertex="1">
          <mxGeometry y="26" width="210" height="104" as="geometry" />
        </mxCell>
        <mxCell id="7tsFfhqOV2eTebvIQZ4a-16" value="" style="line;strokeWidth=1;fillColor=none;align=left;verticalAlign=middle;spacingTop=-1;spacingLeft=3;spacingRight=3;rotatable=0;labelPosition=right;points=[];portConstraint=eastwest;strokeColor=inherit;" parent="7tsFfhqOV2eTebvIQZ4a-14" vertex="1">
          <mxGeometry y="130" width="210" height="20" as="geometry" />
        </mxCell>
        <mxCell id="7tsFfhqOV2eTebvIQZ4a-25" value="" style="endArrow=block;endFill=1;html=1;edgeStyle=orthogonalEdgeStyle;align=left;verticalAlign=top;rounded=0;exitX=0.25;exitY=1;exitDx=0;exitDy=0;" parent="1" source="7tsFfhqOV2eTebvIQZ4a-1" edge="1">
          <mxGeometry x="-1" relative="1" as="geometry">
            <mxPoint x="330" y="360" as="sourcePoint" />
            <mxPoint x="490" y="310" as="targetPoint" />
          </mxGeometry>
        </mxCell>
        <mxCell id="7tsFfhqOV2eTebvIQZ4a-26" value="1" style="edgeLabel;resizable=0;html=1;align=left;verticalAlign=bottom;" parent="7tsFfhqOV2eTebvIQZ4a-25" connectable="0" vertex="1">
          <mxGeometry x="-1" relative="1" as="geometry">
            <mxPoint y="22" as="offset" />
          </mxGeometry>
        </mxCell>
        <mxCell id="ZSwqGlGBloEM-RFQqdb9-1" value="relation" style="edgeLabel;html=1;align=center;verticalAlign=middle;resizable=0;points=[];" vertex="1" connectable="0" parent="7tsFfhqOV2eTebvIQZ4a-25">
          <mxGeometry x="-0.1525" y="2" relative="1" as="geometry">
            <mxPoint as="offset" />
          </mxGeometry>
        </mxCell>
        <mxCell id="7tsFfhqOV2eTebvIQZ4a-27" value="1" style="edgeLabel;resizable=0;html=1;align=left;verticalAlign=bottom;" parent="1" connectable="0" vertex="1">
          <mxGeometry x="443.5" y="250" as="geometry">
            <mxPoint x="51" y="56" as="offset" />
          </mxGeometry>
        </mxCell>
        <mxCell id="7tsFfhqOV2eTebvIQZ4a-29" value="Bloodpresure" style="swimlane;fontStyle=1;align=center;verticalAlign=top;childLayout=stackLayout;horizontal=1;startSize=26;horizontalStack=0;resizeParent=1;resizeParentMax=0;resizeLast=0;collapsible=1;marginBottom=0;whiteSpace=wrap;html=1;" parent="1" vertex="1">
          <mxGeometry x="630" y="320" width="210" height="138" as="geometry" />
        </mxCell>
        <mxCell id="7tsFfhqOV2eTebvIQZ4a-30" value="&lt;font style=&quot;font-size: 14px;&quot;&gt;+ id: String&lt;br&gt;+ bloodPresure: String&lt;br&gt;+ toDisplay(): String&lt;br&gt;&lt;/font&gt;" style="text;strokeColor=none;fillColor=none;align=left;verticalAlign=top;spacingLeft=4;spacingRight=4;overflow=hidden;rotatable=0;points=[[0,0.5],[1,0.5]];portConstraint=eastwest;whiteSpace=wrap;html=1;" parent="7tsFfhqOV2eTebvIQZ4a-29" vertex="1">
          <mxGeometry y="26" width="210" height="104" as="geometry" />
        </mxCell>
        <mxCell id="7tsFfhqOV2eTebvIQZ4a-31" value="" style="line;strokeWidth=1;fillColor=none;align=left;verticalAlign=middle;spacingTop=-1;spacingLeft=3;spacingRight=3;rotatable=0;labelPosition=right;points=[];portConstraint=eastwest;strokeColor=inherit;" parent="7tsFfhqOV2eTebvIQZ4a-29" vertex="1">
          <mxGeometry y="130" width="210" height="8" as="geometry" />
        </mxCell>
      </root>
    </mxGraphModel>
  </diagram>
</mxfile>
